# MagicaVoxel @ Ephtracy

# material
mtllib mura_2.mtl
usemtl palette

# normals
vn -1 0 0
vn 1 0 0
vn 0 0 1
vn 0 0 -1
vn 0 -1 0
vn 0 1 0

# texcoords
vt 0.974609 0.5
vt 0.978516 0.5
vt 0.982422 0.5
vt 0.994141 0.5

# verts
v -9.5 0 4
v -9.5 0 -4
v -9.5 7 -0
v -9.5 7 -2
v -9.5 8 -0
v -9.5 8 -2
v -9.5 11 -0
v -9.5 11 -2
v -9.5 12 -0
v -9.5 12 -2
v -9.5 15 4
v -9.5 15 3
v -9.5 17 4
v -9.5 17 3
v -9.5 18 -0
v -9.5 18 -2
v -9.5 22 -1
v -9.5 22 -2
v -9.5 22 -3
v -9.5 23 -0
v -9.5 23 -1
v -9.5 23 -3
v -9.5 27 4
v -9.5 27 -4
v -4.5 22 4
v -4.5 22 -4
v -4.5 27 4
v -4.5 27 -4
v -2.5 0 -0
v -2.5 0 -1
v -2.5 1 -0
v -2.5 1 -1
v 1.5 22 4
v 1.5 22 -4
v 1.5 27 4
v 1.5 27 -4
v 7.5 22 4
v 7.5 22 -4
v 7.5 27 4
v 7.5 27 -4
v -7.5 22 4
v -7.5 22 -4
v -7.5 27 4
v -7.5 27 -4
v -3.5 0 -0
v -3.5 0 -1
v -3.5 1 -0
v -3.5 1 -1
v -2.5 22 4
v -2.5 22 -4
v -2.5 27 4
v -2.5 27 -4
v 3.5 22 4
v 3.5 22 -4
v 3.5 27 4
v 3.5 27 -4
v 9.5 0 4
v 9.5 0 -4
v 9.5 3 -3
v 9.5 3 -4
v 9.5 4 4
v 9.5 4 3
v 9.5 5 -3
v 9.5 5 -4
v 9.5 6 4
v 9.5 6 3
v 9.5 14 4
v 9.5 14 3
v 9.5 14 -3
v 9.5 14 -4
v 9.5 17 4
v 9.5 17 3
v 9.5 17 -3
v 9.5 17 -4
v 9.5 19 -0
v 9.5 19 -2
v 9.5 20 2
v 9.5 20 -0
v 9.5 22 2
v 9.5 22 -0
v 9.5 23 2
v 9.5 23 -0
v 9.5 24 -0
v 9.5 24 -2
v 9.5 27 4
v 9.5 27 -4
v -9.5 0 4
v -9.5 15 4
v -9.5 17 4
v -9.5 27 4
v -7.5 22 4
v -7.5 27 4
v -6.5 10 4
v -6.5 12 4
v -6.5 15 4
v -6.5 17 4
v -4.5 22 4
v -4.5 27 4
v -2.5 10 4
v -2.5 12 4
v -2.5 22 4
v -2.5 27 4
v 1.5 22 4
v 1.5 27 4
v 3.5 22 4
v 3.5 27 4
v 5.5 4 4
v 5.5 5 4
v 6.5 5 4
v 6.5 6 4
v 7.5 22 4
v 7.5 27 4
v 8.5 14 4
v 8.5 17 4
v 9.5 0 4
v 9.5 4 4
v 9.5 6 4
v 9.5 14 4
v 9.5 17 4
v 9.5 27 4
v -3.5 0 -1
v -3.5 1 -1
v -2.5 0 -1
v -2.5 1 -1
v -3.5 0 -0
v -3.5 1 -0
v -2.5 0 -0
v -2.5 1 -0
v -9.5 0 -4
v -9.5 27 -4
v -7.5 22 -4
v -7.5 27 -4
v -6.5 17 -4
v -6.5 19 -4
v -4.5 10 -4
v -4.5 13 -4
v -4.5 22 -4
v -4.5 27 -4
v -2.5 17 -4
v -2.5 19 -4
v -2.5 22 -4
v -2.5 27 -4
v -0.5 10 -4
v -0.5 13 -4
v 1.5 22 -4
v 1.5 27 -4
v 3.5 22 -4
v 3.5 27 -4
v 5.5 3 -4
v 5.5 4 -4
v 6.5 4 -4
v 6.5 5 -4
v 7.5 14 -4
v 7.5 17 -4
v 7.5 22 -4
v 7.5 27 -4
v 9.5 0 -4
v 9.5 3 -4
v 9.5 5 -4
v 9.5 14 -4
v 9.5 17 -4
v 9.5 27 -4
v -9.5 0 4
v 9.5 0 4
v -3.5 0 -0
v -2.5 0 -0
v -3.5 0 -1
v -2.5 0 -1
v -9.5 0 -4
v 9.5 0 -4
v -3.5 1 -0
v -2.5 1 -0
v -3.5 1 -1
v -2.5 1 -1
v -7.5 22 4
v -4.5 22 4
v -2.5 22 4
v 1.5 22 4
v 3.5 22 4
v 7.5 22 4
v -7.5 22 -4
v -4.5 22 -4
v -2.5 22 -4
v 1.5 22 -4
v 3.5 22 -4
v 7.5 22 -4
v -9.5 27 4
v -7.5 27 4
v -4.5 27 4
v -2.5 27 4
v 1.5 27 4
v 3.5 27 4
v 7.5 27 4
v 9.5 27 4
v -9.5 27 -4
v -7.5 27 -4
v -4.5 27 -4
v -2.5 27 -4
v 1.5 27 -4
v 3.5 27 -4
v 7.5 27 -4
v 9.5 27 -4

# faces
f 3/1/1 2/1/1 1/1/1
f 4/1/1 2/1/1 3/1/1
f 5/1/1 3/1/1 1/1/1
f 5/4/1 4/4/1 3/4/1
f 6/1/1 2/1/1 4/1/1
f 6/4/1 4/4/1 5/4/1
f 7/1/1 5/1/1 1/1/1
f 7/2/1 6/2/1 5/2/1
f 8/1/1 2/1/1 6/1/1
f 8/2/1 6/2/1 7/2/1
f 9/1/1 7/1/1 1/1/1
f 9/4/1 8/4/1 7/4/1
f 10/1/1 2/1/1 8/1/1
f 10/4/1 8/4/1 9/4/1
f 11/1/1 9/1/1 1/1/1
f 11/1/1 10/1/1 9/1/1
f 12/1/1 10/1/1 11/1/1
f 13/3/1 12/3/1 11/3/1
f 14/1/1 10/1/1 12/1/1
f 14/3/1 12/3/1 13/3/1
f 15/1/1 14/1/1 13/1/1
f 15/1/1 10/1/1 14/1/1
f 16/1/1 2/1/1 10/1/1
f 16/1/1 10/1/1 15/1/1
f 17/3/1 16/3/1 15/3/1
f 18/1/1 2/1/1 16/1/1
f 18/3/1 16/3/1 17/3/1
f 19/1/1 2/1/1 18/1/1
f 20/1/1 15/1/1 13/1/1
f 20/3/1 17/3/1 15/3/1
f 21/4/1 19/4/1 18/4/1
f 21/3/1 17/3/1 20/3/1
f 21/4/1 18/4/1 17/4/1
f 22/1/1 2/1/1 19/1/1
f 22/4/1 19/4/1 21/4/1
f 23/1/1 21/1/1 20/1/1
f 23/1/1 20/1/1 13/1/1
f 23/1/1 22/1/1 21/1/1
f 24/1/1 2/1/1 22/1/1
f 24/1/1 22/1/1 23/1/1
f 27/1/1 26/1/1 25/1/1
f 28/1/1 26/1/1 27/1/1
f 31/1/1 30/1/1 29/1/1
f 32/1/1 30/1/1 31/1/1
f 35/1/1 34/1/1 33/1/1
f 36/1/1 34/1/1 35/1/1
f 39/1/1 38/1/1 37/1/1
f 40/1/1 38/1/1 39/1/1
f 41/1/2 42/1/2 43/1/2
f 43/1/2 42/1/2 44/1/2
f 45/1/2 46/1/2 47/1/2
f 47/1/2 46/1/2 48/1/2
f 49/1/2 50/1/2 51/1/2
f 51/1/2 50/1/2 52/1/2
f 53/1/2 54/1/2 55/1/2
f 55/1/2 54/1/2 56/1/2
f 57/1/2 58/1/2 59/1/2
f 59/1/2 58/1/2 60/1/2
f 57/1/2 59/1/2 61/1/2
f 61/1/2 59/1/2 62/1/2
f 59/3/2 60/3/2 63/3/2
f 62/1/2 59/1/2 63/1/2
f 63/3/2 60/3/2 64/3/2
f 61/3/2 62/3/2 65/3/2
f 62/1/2 63/1/2 66/1/2
f 65/3/2 62/3/2 66/3/2
f 63/1/2 64/1/2 66/1/2
f 65/1/2 66/1/2 67/1/2
f 66/1/2 64/1/2 68/1/2
f 67/1/2 66/1/2 68/1/2
f 68/1/2 64/1/2 69/1/2
f 69/1/2 64/1/2 70/1/2
f 67/3/2 68/3/2 71/3/2
f 68/1/2 69/1/2 72/1/2
f 71/3/2 68/3/2 72/3/2
f 69/3/2 70/3/2 73/3/2
f 72/1/2 69/1/2 73/1/2
f 73/3/2 70/3/2 74/3/2
f 71/1/2 72/1/2 75/1/2
f 72/1/2 73/1/2 75/1/2
f 73/1/2 74/1/2 75/1/2
f 75/1/2 74/1/2 76/1/2
f 71/1/2 75/1/2 77/1/2
f 75/3/2 76/3/2 78/3/2
f 77/1/2 75/1/2 78/1/2
f 71/1/2 77/1/2 79/1/2
f 77/3/2 78/3/2 79/3/2
f 78/3/2 76/3/2 80/3/2
f 79/3/2 78/3/2 80/3/2
f 71/1/2 79/1/2 81/1/2
f 79/4/2 80/4/2 81/4/2
f 80/3/2 76/3/2 82/3/2
f 81/4/2 80/4/2 82/4/2
f 81/1/2 82/1/2 83/1/2
f 82/3/2 76/3/2 83/3/2
f 76/1/2 74/1/2 84/1/2
f 83/3/2 76/3/2 84/3/2
f 81/1/2 83/1/2 85/1/2
f 71/1/2 81/1/2 85/1/2
f 83/1/2 84/1/2 85/1/2
f 84/1/2 74/1/2 86/1/2
f 85/1/2 84/1/2 86/1/2
f 91/1/3 90/1/3 89/1/3
f 92/1/3 90/1/3 91/1/3
f 93/1/3 88/1/3 87/1/3
f 94/1/3 88/1/3 93/1/3
f 95/3/3 89/3/3 88/3/3
f 95/1/3 88/1/3 94/1/3
f 96/1/3 91/1/3 89/1/3
f 96/3/3 89/3/3 95/3/3
f 97/1/3 95/1/3 94/1/3
f 97/1/3 91/1/3 96/1/3
f 97/1/3 96/1/3 95/1/3
f 99/3/3 94/3/3 93/3/3
f 99/1/3 93/1/3 87/1/3
f 100/1/3 98/1/3 97/1/3
f 100/3/3 94/3/3 99/3/3
f 100/1/3 97/1/3 94/1/3
f 101/1/3 98/1/3 100/1/3
f 102/1/3 98/1/3 101/1/3
f 103/1/3 100/1/3 99/1/3
f 103/1/3 101/1/3 100/1/3
f 105/1/3 103/1/3 99/1/3
f 105/1/3 104/1/3 103/1/3
f 106/1/3 104/1/3 105/1/3
f 107/1/3 99/1/3 87/1/3
f 107/1/3 105/1/3 99/1/3
f 108/1/3 105/1/3 107/1/3
f 109/3/3 108/3/3 107/3/3
f 109/1/3 105/1/3 108/1/3
f 110/1/3 105/1/3 109/1/3
f 111/1/3 105/1/3 110/1/3
f 113/1/3 111/1/3 110/1/3
f 113/1/3 112/1/3 111/1/3
f 114/1/3 112/1/3 113/1/3
f 115/1/3 107/1/3 87/1/3
f 116/3/3 109/3/3 107/3/3
f 116/1/3 107/1/3 115/1/3
f 116/3/3 110/3/3 109/3/3
f 117/1/3 113/1/3 110/1/3
f 117/3/3 110/3/3 116/3/3
f 118/3/3 114/3/3 113/3/3
f 118/1/3 113/1/3 117/1/3
f 119/1/3 112/1/3 114/1/3
f 119/3/3 114/3/3 118/3/3
f 120/1/3 112/1/3 119/1/3
f 123/1/3 122/1/3 121/1/3
f 124/1/3 122/1/3 123/1/3
f 125/1/4 126/1/4 127/1/4
f 127/1/4 126/1/4 128/1/4
f 129/1/4 130/1/4 131/1/4
f 131/1/4 130/1/4 132/1/4
f 129/1/4 131/1/4 133/1/4
f 133/1/4 131/1/4 134/1/4
f 129/1/4 133/1/4 135/1/4
f 135/1/4 133/1/4 136/1/4
f 134/1/4 131/1/4 137/1/4
f 136/1/4 133/1/4 139/1/4
f 133/3/4 134/3/4 139/3/4
f 137/1/4 138/1/4 140/1/4
f 139/3/4 134/3/4 140/3/4
f 134/1/4 137/1/4 140/1/4
f 140/1/4 138/1/4 141/1/4
f 141/1/4 138/1/4 142/1/4
f 135/3/4 136/3/4 143/3/4
f 129/1/4 135/1/4 143/1/4
f 136/1/4 139/1/4 144/1/4
f 143/3/4 136/3/4 144/3/4
f 140/1/4 141/1/4 144/1/4
f 139/1/4 140/1/4 144/1/4
f 143/1/4 144/1/4 145/1/4
f 144/1/4 141/1/4 145/1/4
f 143/1/4 145/1/4 147/1/4
f 145/1/4 146/1/4 147/1/4
f 147/1/4 146/1/4 148/1/4
f 129/1/4 143/1/4 149/1/4
f 143/1/4 147/1/4 149/1/4
f 149/1/4 147/1/4 150/1/4
f 149/3/4 150/3/4 151/3/4
f 150/1/4 147/1/4 151/1/4
f 151/1/4 147/1/4 152/1/4
f 152/1/4 147/1/4 153/1/4
f 153/1/4 147/1/4 154/1/4
f 154/1/4 147/1/4 155/1/4
f 129/1/4 149/1/4 157/1/4
f 149/3/4 151/3/4 158/3/4
f 157/1/4 149/1/4 158/1/4
f 151/3/4 152/3/4 158/3/4
f 152/1/4 153/1/4 159/1/4
f 158/3/4 152/3/4 159/3/4
f 153/3/4 154/3/4 160/3/4
f 159/1/4 153/1/4 160/1/4
f 155/1/4 156/1/4 161/1/4
f 160/3/4 154/3/4 161/3/4
f 154/1/4 155/1/4 161/1/4
f 161/1/4 156/1/4 162/1/4
f 165/1/5 164/1/5 163/1/5
f 166/1/5 164/1/5 165/1/5
f 167/1/5 165/1/5 163/1/5
f 168/1/5 164/1/5 166/1/5
f 169/1/5 167/1/5 163/1/5
f 169/1/5 168/1/5 167/1/5
f 170/1/5 164/1/5 168/1/5
f 170/1/5 168/1/5 169/1/5
f 173/1/5 172/1/5 171/1/5
f 174/1/5 172/1/5 173/1/5
f 175/1/6 176/1/6 181/1/6
f 181/1/6 176/1/6 182/1/6
f 177/1/6 178/1/6 183/1/6
f 183/1/6 178/1/6 184/1/6
f 179/1/6 180/1/6 185/1/6
f 185/1/6 180/1/6 186/1/6
f 187/1/6 188/1/6 195/1/6
f 195/1/6 188/1/6 196/1/6
f 189/1/6 190/1/6 197/1/6
f 197/1/6 190/1/6 198/1/6
f 191/1/6 192/1/6 199/1/6
f 199/1/6 192/1/6 200/1/6
f 193/1/6 194/1/6 201/1/6
f 201/1/6 194/1/6 202/1/6
